PathFileType	4	(X/Y/Z)	/Users/itak/Documents/Research/Walk-IL/dataset/trc/00107_00007.trc
DataRate	CameraRate	NumFrames	NumMarkers	Units	OrigDataRate	OrigDataStartFrame	OrigNumFrames
100.000000	100.000000	4	53	mm	100.000000	420	561
Frame#	Time	RPSI			LPSI			L3			STRN			T10			C7			CLAV			RBAK			LBAK			LSHO			LUPA			LAEL			LAOL			LWTS			LWPS			LFRA			LIFD			LHPS			LHTS			RSHO			RUPA			RAEL			RAOL			RWTS			RWPS			RFRA			RIFD			RHTS			RHPS			RBHD			LFHD			RFHD			LBHD			LHIP			RHIP			RASI			LASI			LKNE			LTHI			LANK			LTIP			LTOE			LMT1			LMT5			LHEE			RKNE			RTHI			RANK			RTIP			RTOE			RMT1			RMT5			RHEE			
		X1	Y1	Z1	X2	Y2	Z2	X3	Y3	Z3	X4	Y4	Z4	X5	Y5	Z5	X6	Y6	Z6	X7	Y7	Z7	X8	Y8	Z8	X9	Y9	Z9	X10	Y10	Z10	X11	Y11	Z11	X12	Y12	Z12	X13	Y13	Z13	X14	Y14	Z14	X15	Y15	Z15	X16	Y16	Z16	X17	Y17	Z17	X18	Y18	Z18	X19	Y19	Z19	X20	Y20	Z20	X21	Y21	Z21	X22	Y22	Z22	X23	Y23	Z23	X24	Y24	Z24	X25	Y25	Z25	X26	Y26	Z26	X27	Y27	Z27	X28	Y28	Z28	X29	Y29	Z29	X30	Y30	Z30	X31	Y31	Z31	X32	Y32	Z32	X33	Y33	Z33	X34	Y34	Z34	X35	Y35	Z35	X36	Y36	Z36	X37	Y37	Z37	X38	Y38	Z38	X39	Y39	Z39	X40	Y40	Z40	X41	Y41	Z41	X42	Y42	Z42	X43	Y43	Z43	X44	Y44	Z44	X45	Y45	Z45	X46	Y46	Z46	X47	Y47	Z47	X48	Y48	Z48	X49	Y49	Z49	X50	Y50	Z50	X51	Y51	Z51	X52	Y52	Z52	X53	Y53	Z53	

421	4.2	125.6672134399414	1116.016235351562	-227.8835296630859	113.6923217773438	1115.252563476562	-363.1240234375	110.9847717285156	1151.323364257812	-296.5208435058594	322.196533203125	1363.203125	-313.91162109375	72.94842529296875	1302.105590820312	-293.1356506347656	97.70121765136719	1595.86474609375	-307.82275390625	281.7455749511719	1496.70166015625	-313.4281005859375	58.84553146362305	1409.55908203125	-215.4864196777344	82.60160064697266	1576.300170898438	-408.5974731445312	165.3723754882812	1565.505859375	-483.5823059082031	141.9946594238281	1433.173828125	-551.0499267578125	153.0473480224609	1213.905883789062	-572.3244018554688	91.83498382568359	1202.762084960938	-510.3268432617188	249.7735595703125	954.0458374023438	-535.3379516601562	165.1612396240234	930.2761840820312	-556.457763671875	166.6929931640625	1097.266357421875	-576.9108276367188	251.39013671875	759.1239624023438	-507.6674499511719	190.2201385498047	853.6096801757812	-557.2765502929688	259.9904174804688	862.7648315429688	-545.155029296875	168.6671295166016	1579.385009765625	-130.9882507324219	164.5593109130859	1506.3828125	-64.88764953613281	196.7028656005859	1214.677856445312	-27.27609634399414	184.5225677490234	1205.130981445312	-122.5696182250977	390.466552734375	1010.494873046875	-37.20673751831055	324.1476135253906	978.4330444335938	-0.8413227796554565	236.3921661376953	1148.564331054688	-9.5867919921875	457.5924682617188	826.4957275390625	-48.26343536376953	444.6958312988281	912.2738647460938	-27.91490173339844	383.4660949707031	890.9288940429688	6.43308687210083	132.8939056396484	1765.311401367188	-230.0008239746094	280.34375	1845.360107421875	-374.8877258300781	289.8206481933594	1849.96533203125	-245.7461547851562	114.6897811889648	1765.151489257812	-364.7920227050781	202.3864288330078	1033.142700195312	-481.2178955078125	265.0865173339844	1031.260131835938	-119.5028839111328	337.9761047363281	1107.311767578125	-179.5826110839844	309.7601623535156	1107.46484375	-444.5047607421875	371.9176635742188	542.058349609375	-469.5216369628906	307.34423828125	685.7471313476562	-485.6600036621094	33.33551406860352	132.5636596679688	-479.9630432128906	167.6009674072266	355.8316955566406	-494.5888977050781	248.15576171875	53.9222412109375	-461.4432373046875	183.5681457519531	77.82578277587891	-415.6733093261719	139.1834716796875	82.75979614257812	-521.7608642578125	-19.67995643615723	156.7733612060547	-407.7960510253906	320.5919189453125	541.723388671875	-171.0254516601562	310.1116943359375	820.8152465820312	-133.1484985351562	288.9106140136719	25.34206390380859	-221.0787658691406	314.14013671875	405.8610229492188	-166.1383514404297	517.522705078125	46.99641418457031	-282.2073974609375	457.2313232421875	44.48990249633789	-323.8790893554688	423.8313293457031	38.33972930908203	-206.9796142578125	229.8307800292969	31.16946601867676	-267.1430358886719	
422	4.21	129.6288757324219	1116.34814453125	-227.5023040771484	117.8112335205078	1115.671264648438	-362.7688598632812	115.0146636962891	1151.673706054688	-296.0854797363281	326.6398620605469	1363.516479492188	-313.3993530273438	77.62213897705078	1302.518798828125	-292.1092529296875	102.2207717895508	1596.287719726562	-306.9538879394531	286.205810546875	1497.006469726562	-313.075439453125	63.57650756835938	1410.165161132812	-214.2807464599609	86.80001068115234	1576.68994140625	-407.6367492675781	169.291259765625	1565.702026367188	-482.9306030273438	144.9274291992188	1433.419921875	-550.160400390625	154.1252288818359	1214.184448242188	-571.3397827148438	93.33518218994141	1203.482177734375	-508.9141540527344	249.7301177978516	953.8851928710938	-534.7227172851562	164.9062957763672	930.4801635742188	-555.2969970703125	167.0614013671875	1097.44140625	-575.93408203125	250.5934600830078	758.9745483398438	-506.5422973632812	189.5210113525391	853.63818359375	-556.0634155273438	259.3726806640625	862.4276123046875	-544.302978515625	173.7681274414062	1580.024658203125	-130.3619689941406	169.9409484863281	1507.14892578125	-64.13066864013672	203.2489624023438	1215.609985351562	-25.77474975585938	190.2704010009766	1205.773071289062	-121.0546188354492	398.6288146972656	1013.019104003906	-36.35565948486328	332.7783508300781	980.40869140625	0.4139490723609924	243.5140838623047	1149.777587890625	-8.16478443145752	467.4389953613281	829.6683959960938	-47.28393936157227	453.8268127441406	915.3654174804688	-27.08344459533691	392.9282531738281	893.4954833984375	7.605600833892822	137.5445556640625	1765.737426757812	-229.5017395019531	284.8635559082031	1845.684814453125	-374.5448303222656	294.4495544433594	1850.337768554688	-245.4065399169922	119.2193298339844	1765.47314453125	-364.2736206054688	206.6970977783203	1033.576171875	-480.6425476074219	268.6146240234375	1031.385864257812	-118.9435653686523	341.8964233398438	1107.460083007812	-178.7838287353516	314.2459106445312	1108.117919921875	-443.8306579589844	378.2938842773438	543.3697509765625	-468.6253967285156	312.8567504882812	686.5733642578125	-485.1521606445312	49.72296905517578	126.1667785644531	-481.1697387695312	178.1814117431641	352.7497253417969	-495.1064453125	267.0300903320312	54.47005462646484	-461.6232604980469	201.2023620605469	75.82427215576172	-416.0154724121094	157.34716796875	79.77591705322266	-522.379638671875	-4.664474487304688	148.7592926025391	-409.2699279785156	321.5845947265625	541.549072265625	-170.5187683105469	312.9777221679688	820.934326171875	-132.9674530029297	288.9169311523438	25.40473937988281	-221.1624298095703	314.7100219726562	405.7696228027344	-165.7585601806641	517.573486328125	46.75684356689453	-282.2994689941406	457.2584533691406	44.25449752807617	-323.9219360351562	423.8415832519531	38.33891677856445	-206.9645385742188	229.8750762939453	31.23659896850586	-267.1980895996094	
423	4.22	133.5021362304688	1116.643798828125	-227.1549224853516	121.8508834838867	1116.04443359375	-362.4459228515625	118.9527206420898	1151.989135742188	-295.6934814453125	330.9777221679688	1363.787963867188	-312.927734375	82.30598449707031	1302.916015625	-291.0427551269531	106.6415710449219	1596.680419921875	-306.13525390625	290.560546875	1497.27001953125	-312.7562255859375	68.19075775146484	1410.743530273438	-213.1369323730469	90.92366790771484	1577.051147460938	-406.7308959960938	173.1302490234375	1565.865234375	-482.3277893066406	147.8501892089844	1433.615844726562	-549.2967529296875	155.3425445556641	1214.432739257812	-570.369140625	94.96400451660156	1204.1376953125	-507.5385437011719	249.8607025146484	953.7183837890625	-534.1238403320312	164.794921875	930.6777954101562	-554.2051391601562	167.5991058349609	1097.594482421875	-574.9811401367188	249.9732818603516	758.7992553710938	-505.5828247070312	189.0073089599609	853.6755981445312	-554.9729614257812	258.9202575683594	862.1028442382812	-543.520751953125	178.7535247802734	1580.619873046875	-129.7788848876953	175.1909942626953	1507.870361328125	-63.42013549804688	209.5244445800781	1216.485595703125	-24.36131858825684	195.7333068847656	1206.377563476562	-119.6441955566406	406.4694519042969	1015.458862304688	-35.65024566650391	341.0744934082031	982.302490234375	1.500788688659668	250.3567047119141	1150.915405273438	-6.845425128936768	476.9536743164062	832.7638549804688	-46.54121398925781	462.6309204101562	918.3832397460938	-26.43967056274414	402.0740356445312	895.9766235351562	8.57768440246582	142.1222229003906	1766.161743164062	-229.0522613525391	289.2913513183594	1845.97119140625	-374.2588195800781	298.9761962890625	1850.678344726562	-245.1237640380859	123.6613998413086	1765.759765625	-363.8231506347656	210.8985290527344	1033.9482421875	-480.0669860839844	272.1011352539062	1031.498291015625	-118.4198150634766	345.7398986816406	1107.588256835938	-178.0464935302734	318.6020202636719	1108.669921875	-443.1597900390625	384.2462768554688	544.53125	-467.7738647460938	318.0480346679688	687.288330078125	-484.7309265136719	66.0701904296875	119.693244934082	-482.2614135742188	188.5141296386719	349.5272521972656	-495.6116638183594	285.6529846191406	55.09592056274414	-461.4366760253906	218.5680084228516	73.86257171630859	-416.0468444824219	175.4112396240234	76.76766967773438	-522.7423095703125	10.25355052947998	140.7352905273438	-410.693359375	322.6150512695312	541.389404296875	-170.0408172607422	315.8197021484375	821.101806640625	-132.8329925537109	288.9221801757812	25.45635223388672	-221.2307891845703	315.3085632324219	405.6841430664062	-165.3965454101562	517.6241455078125	46.57735443115234	-282.3919677734375	457.2362670898438	43.94990158081055	-323.9517822265625	423.8486022949219	38.33928680419922	-206.9562377929688	229.9066619873047	31.29379463195801	-267.2349853515625	
424	4.23	137.2882385253906	1116.905517578125	-226.8485870361328	125.8154296875	1116.380859375	-362.1607360839844	122.8017883300781	1152.276489257812	-295.3506164550781	335.2069702148438	1364.027587890625	-312.4908447265625	86.97124481201172	1303.297607421875	-289.9629211425781	110.9597244262695	1597.045288085938	-305.3717651367188	294.8056945800781	1497.502197265625	-312.4683532714844	72.67784881591797	1411.29248046875	-212.0625305175781	94.96682739257812	1577.384643554688	-405.8860473632812	176.8940277099609	1566.006103515625	-481.7789306640625	150.7701568603516	1433.772583007812	-548.4719848632812	156.6971435546875	1214.6513671875	-569.4193725585938	96.73876190185547	1204.733276367188	-506.1905517578125	250.1593017578125	953.5473022460938	-533.5726928710938	164.8140411376953	930.8674926757812	-553.1690063476562	168.3011322021484	1097.72802734375	-574.0574951171875	249.5254974365234	758.600341796875	-504.7999267578125	188.6658020019531	853.7222900390625	-553.9952392578125	258.6210632324219	861.7852172851562	-542.8338012695312	183.6052398681641	1581.173950195312	-129.2424468994141	180.2981414794922	1508.548583984375	-62.75799560546875	215.5385894775391	1217.30859375	-23.04038238525391	200.9385375976562	1206.945556640625	-118.3363800048828	413.9810791015625	1017.802307128906	-35.09080123901367	349.0259399414062	984.1083984375	2.424280881881714	256.9247131347656	1151.981323242188	-5.631350994110107	486.1039123535156	835.745361328125	-46.03493499755859	471.0941162109375	921.3087158203125	-25.98109245300293	410.8933715820312	898.3607177734375	9.35843563079834	146.6391296386719	1766.597290039062	-228.6481781005859	293.6269836425781	1846.222045898438	-374.0289916992188	303.40380859375	1850.988525390625	-244.8979034423828	128.0194244384766	1766.0205078125	-363.4444885253906	214.9961242675781	1034.271728515625	-479.4990539550781	275.561279296875	1031.595336914062	-117.9273147583008	349.5043029785156	1107.700805664062	-177.36181640625	322.8045349121094	1109.104125976562	-442.4653930664062	389.7868041992188	545.5474853515625	-466.9647827148438	322.9454650878906	687.9053955078125	-484.3929443359375	82.28926849365234	113.2580718994141	-483.2283325195312	198.5657806396484	346.2404479980469	-496.0805969238281	303.8843078613281	55.81756591796875	-460.8543090820312	235.5895690917969	72.06417846679688	-415.7733764648438	193.2754364013672	73.81586456298828	-522.834228515625	25.0254020690918	132.7885284423828	-412.0509033203125	323.698486328125	541.2427368164062	-169.6082153320312	318.6107788085938	821.2974243164062	-132.7057495117188	288.9290466308594	25.50192642211914	-221.28759765625	315.9552612304688	405.603515625	-165.0691070556641	517.6747436523438	46.42694854736328	-282.4853820800781	457.1552429199219	43.54499816894531	-323.9628601074219	423.854736328125	38.34177398681641	-206.9539184570312	229.9389343261719	31.34135437011719	-267.256103515625	
